<svg xmlns="http://www.w3.org/2000/svg" xmlns:xlink="http://www.w3.org/1999/xlink" width="500" zoomAndPan="magnify" viewBox="0 0 375 374.999991" height="500" preserveAspectRatio="xMidYMid meet" version="1.0"><defs><g/><clipPath id="fb0fe2c228"><rect x="0" width="296" y="0" height="133"/></clipPath><clipPath id="b599c1a4c5"><rect x="0" width="25" y="0" height="58"/></clipPath><clipPath id="be0950f853"><path d="M 328.125 223.949219 L 344.960938 223.949219 L 344.960938 240.785156 L 328.125 240.785156 Z M 328.125 223.949219 " clip-rule="nonzero"/></clipPath><clipPath id="ee125d154a"><path d="M 336.542969 223.949219 C 331.894531 223.949219 328.125 227.71875 328.125 232.367188 C 328.125 237.015625 331.894531 240.785156 336.542969 240.785156 C 341.195312 240.785156 344.960938 237.015625 344.960938 232.367188 C 344.960938 227.71875 341.195312 223.949219 336.542969 223.949219 Z M 336.542969 223.949219 " clip-rule="nonzero"/></clipPath><clipPath id="a4243cb879"><path d="M 0.125 0.949219 L 16.960938 0.949219 L 16.960938 17.785156 L 0.125 17.785156 Z M 0.125 0.949219 " clip-rule="nonzero"/></clipPath><clipPath id="b2dca8df03"><path d="M 8.542969 0.949219 C 3.894531 0.949219 0.125 4.71875 0.125 9.367188 C 0.125 14.015625 3.894531 17.785156 8.542969 17.785156 C 13.195312 17.785156 16.960938 14.015625 16.960938 9.367188 C 16.960938 4.71875 13.195312 0.949219 8.542969 0.949219 Z M 8.542969 0.949219 " clip-rule="nonzero"/></clipPath><clipPath id="b5241c0a94"><rect x="0" width="17" y="0" height="18"/></clipPath></defs><g transform="matrix(1, 0, 0, 1, 30, 108)"><g clip-path="url(#fb0fe2c228)"><g fill="#000000" fill-opacity="1"><g transform="translate(0.589568, 109.701224)"><g><path d="M 58.5 -23.640625 C 58.5 -27.929688 57.796875 -31.425781 56.390625 -34.125 C 54.984375 -36.832031 53.132812 -38.960938 50.84375 -40.515625 C 48.550781 -42.078125 46.015625 -43.28125 43.234375 -44.125 C 40.460938 -44.976562 37.6875 -45.703125 34.90625 -46.296875 C 32.132812 -46.890625 29.601562 -47.535156 27.3125 -48.234375 C 25.019531 -48.941406 23.171875 -49.941406 21.765625 -51.234375 C 20.359375 -52.523438 19.65625 -54.359375 19.65625 -56.734375 C 19.65625 -61.910156 23.207031 -64.5 30.3125 -64.5 C 33.789062 -64.5 36.4375 -63.738281 38.25 -62.21875 C 40.0625 -60.707031 40.96875 -58.023438 40.96875 -54.171875 L 55.390625 -54.171875 C 55.390625 -61.867188 53.132812 -67.863281 48.625 -72.15625 C 44.113281 -76.445312 38.007812 -78.59375 30.3125 -78.59375 C 22.6875 -78.59375 16.597656 -76.796875 12.046875 -73.203125 C 7.492188 -69.617188 5.21875 -64.273438 5.21875 -57.171875 C 5.21875 -53.171875 5.921875 -49.894531 7.328125 -47.34375 C 8.734375 -44.789062 10.582031 -42.738281 12.875 -41.1875 C 15.164062 -39.632812 17.695312 -38.394531 20.46875 -37.46875 C 23.25 -36.539062 26.023438 -35.722656 28.796875 -35.015625 C 31.578125 -34.316406 34.113281 -33.539062 36.40625 -32.6875 C 38.707031 -31.84375 40.5625 -30.71875 41.96875 -29.3125 C 43.375 -27.90625 44.078125 -26.015625 44.078125 -23.640625 C 44.078125 -19.796875 42.835938 -17.09375 40.359375 -15.53125 C 37.878906 -13.976562 34.828125 -13.203125 31.203125 -13.203125 C 27.054688 -13.203125 23.6875 -14.296875 21.09375 -16.484375 C 18.5 -18.671875 17.203125 -21.6875 17.203125 -25.53125 L 2.78125 -25.53125 C 2.78125 -20.425781 4.035156 -15.875 6.546875 -11.875 C 9.066406 -7.882812 12.4375 -4.757812 16.65625 -2.5 C 20.875 -0.238281 25.535156 0.890625 30.640625 0.890625 C 35.742188 0.890625 40.40625 -0.0859375 44.625 -2.046875 C 48.84375 -4.015625 52.207031 -6.828125 54.71875 -10.484375 C 57.238281 -14.148438 58.5 -18.535156 58.5 -23.640625 Z M 58.5 -23.640625 "/></g></g></g><g fill="#000000" fill-opacity="1"><g transform="translate(60.092274, 109.701224)"><g><path d="M 3.328125 0 L 3.328125 -77.703125 L 17.765625 -77.703125 L 17.765625 -37.1875 L 36.1875 -55.5 L 54.625 -55.5 L 33.53125 -34.1875 L 58.171875 0 L 42.078125 0 L 23.75 -25.09375 L 17.765625 -19.09375 L 17.765625 0 Z M 3.328125 0 "/></g></g></g><g fill="#000000" fill-opacity="1"><g transform="translate(116.486623, 109.701224)"><g><path d="M 3.328125 0 L 3.328125 -29.203125 C 3.328125 -35.335938 4.363281 -40.347656 6.4375 -44.234375 C 8.507812 -48.117188 11.335938 -51.003906 14.921875 -52.890625 C 18.515625 -54.785156 22.570312 -55.734375 27.09375 -55.734375 L 27.75 -55.734375 L 27.75 -41.625 L 27.203125 -41.625 C 24.015625 -41.625 21.644531 -40.644531 20.09375 -38.6875 C 18.539062 -36.726562 17.765625 -33.566406 17.765625 -29.203125 L 17.765625 0 Z M 3.328125 0 "/></g></g></g><g fill="#000000" fill-opacity="1"><g transform="translate(145.793829, 109.701224)"><g><path d="M 11.984375 -61.390625 C 9.546875 -61.390625 7.492188 -62.222656 5.828125 -63.890625 C 4.160156 -65.554688 3.328125 -67.609375 3.328125 -70.046875 C 3.328125 -72.421875 4.160156 -74.4375 5.828125 -76.09375 C 7.492188 -77.757812 9.546875 -78.59375 11.984375 -78.59375 C 14.359375 -78.59375 16.375 -77.757812 18.03125 -76.09375 C 19.695312 -74.4375 20.53125 -72.421875 20.53125 -70.046875 C 20.53125 -67.609375 19.695312 -65.554688 18.03125 -63.890625 C 16.375 -62.222656 14.359375 -61.390625 11.984375 -61.390625 Z M 4.78125 0 L 4.78125 -55.5 L 19.203125 -55.5 L 19.203125 0 Z M 4.78125 0 "/></g></g></g><g fill="#000000" fill-opacity="1"><g transform="translate(167.885193, 109.701224)"><g><path d="M 20.53125 0 L 0 -55.5 L 15.09375 -55.5 L 27.75 -18.984375 L 40.515625 -55.5 L 55.625 -55.5 L 34.96875 0 Z M 20.53125 0 "/></g></g></g><g fill="#000000" fill-opacity="1"><g transform="translate(221.72625, 109.701224)"><g><path d="M 17.765625 0 L 3.328125 0 L 3.328125 -77.703125 L 17.765625 -77.703125 Z M 17.765625 0 "/></g></g></g><g fill="#000000" fill-opacity="1"><g transform="translate(241.042298, 109.701224)"><g><path d="M 27.75 22.203125 C 21.90625 22.203125 16.910156 20.515625 12.765625 17.140625 C 8.617188 13.773438 5.582031 9.429688 3.65625 4.109375 L 19.765625 4.109375 C 20.722656 5.296875 21.773438 6.257812 22.921875 7 C 24.066406 7.738281 25.675781 8.109375 27.75 8.109375 C 31.226562 8.109375 33.742188 7.273438 35.296875 5.609375 C 36.859375 3.941406 37.640625 1.8125 37.640625 -0.78125 L 37.640625 -1.109375 C 36.304688 -0.585938 34.769531 -0.125 33.03125 0.28125 C 31.289062 0.6875 29.53125 0.890625 27.75 0.890625 C 23.019531 0.890625 18.820312 -0.0703125 15.15625 -2 C 11.488281 -3.925781 8.597656 -6.90625 6.484375 -10.9375 C 4.378906 -14.96875 3.328125 -20.09375 3.328125 -26.3125 L 3.328125 -55.5 L 17.765625 -55.5 L 17.765625 -26.3125 C 17.765625 -21.875 18.539062 -18.578125 20.09375 -16.421875 C 21.644531 -14.273438 24.195312 -13.203125 27.75 -13.203125 C 31.300781 -13.203125 33.851562 -14.273438 35.40625 -16.421875 C 36.96875 -18.578125 37.75 -21.875 37.75 -26.3125 L 37.75 -55.5 L 52.171875 -55.5 L 52.171875 -2.78125 C 52.171875 1.957031 51.113281 6.210938 49 9.984375 C 46.894531 13.765625 44.007812 16.742188 40.34375 18.921875 C 36.6875 21.109375 32.488281 22.203125 27.75 22.203125 Z M 27.75 22.203125 "/></g></g></g></g></g><g transform="matrix(1, 0, 0, 1, 322, 162)"><g clip-path="url(#b599c1a4c5)"><g fill="#000000" fill-opacity="1"><g transform="translate(19.334779, 57.461873)"><g><path d="M -4.515625 -2.96875 C -3.910156 -2.96875 -3.367188 -3.0625 -2.890625 -3.25 C -2.421875 -3.445312 -2.050781 -3.742188 -1.78125 -4.140625 C -1.507812 -4.546875 -1.375 -5.046875 -1.375 -5.640625 C -1.375 -6.234375 -1.507812 -6.742188 -1.78125 -7.171875 C -2.050781 -7.609375 -2.453125 -7.894531 -2.984375 -8.03125 L -2.984375 -9.953125 C -2.296875 -9.828125 -1.710938 -9.550781 -1.234375 -9.125 C -0.765625 -8.695312 -0.410156 -8.179688 -0.171875 -7.578125 C 0.0664062 -6.972656 0.1875 -6.335938 0.1875 -5.671875 C 0.1875 -4.734375 -0.015625 -3.898438 -0.421875 -3.171875 C -0.828125 -2.453125 -1.410156 -1.890625 -2.171875 -1.484375 C -2.929688 -1.085938 -3.835938 -0.890625 -4.890625 -0.890625 C -5.921875 -0.890625 -6.832031 -1.070312 -7.625 -1.4375 C -8.425781 -1.800781 -9.050781 -2.332031 -9.5 -3.03125 C -9.945312 -3.726562 -10.171875 -4.566406 -10.171875 -5.546875 C -10.171875 -6.503906 -9.960938 -7.3125 -9.546875 -7.96875 C -9.140625 -8.632812 -8.566406 -9.140625 -7.828125 -9.484375 C -7.085938 -9.828125 -6.207031 -10 -5.1875 -10 L -4.515625 -10 Z M -5.859375 -2.96875 L -5.859375 -8.03125 C -6.378906 -8.03125 -6.851562 -7.9375 -7.28125 -7.75 C -7.707031 -7.570312 -8.039062 -7.296875 -8.28125 -6.921875 C -8.53125 -6.554688 -8.65625 -6.09375 -8.65625 -5.53125 C -8.65625 -4.957031 -8.515625 -4.476562 -8.234375 -4.09375 C -7.960938 -3.71875 -7.609375 -3.4375 -7.171875 -3.25 C -6.742188 -3.0625 -6.304688 -2.96875 -5.859375 -2.96875 Z M -5.859375 -2.96875 "/></g></g></g><g fill="#000000" fill-opacity="1"><g transform="translate(19.334779, 46.562734)"><g><path d="M -5.78125 -6.1875 L -4.203125 -6.1875 L -4.1875 -1.1875 L -5.765625 -1.1875 Z M -5.78125 -6.1875 "/></g></g></g><g fill="#000000" fill-opacity="1"><g transform="translate(19.334779, 39.196883)"><g><path d="M 0.1875 -5.0625 C 0.1875 -4.363281 0.078125 -3.707031 -0.140625 -3.09375 C -0.359375 -2.488281 -0.703125 -1.984375 -1.171875 -1.578125 C -1.640625 -1.171875 -2.238281 -0.914062 -2.96875 -0.8125 L -2.96875 -2.65625 C -2.59375 -2.738281 -2.28125 -2.894531 -2.03125 -3.125 C -1.78125 -3.363281 -1.59375 -3.648438 -1.46875 -3.984375 C -1.351562 -4.316406 -1.296875 -4.671875 -1.296875 -5.046875 C -1.296875 -5.679688 -1.410156 -6.191406 -1.640625 -6.578125 C -1.867188 -6.972656 -2.222656 -7.171875 -2.703125 -7.171875 C -3.046875 -7.171875 -3.316406 -7.0625 -3.515625 -6.84375 C -3.722656 -6.632812 -3.878906 -6.304688 -3.984375 -5.859375 L -4.453125 -3.875 C -4.640625 -3.050781 -4.941406 -2.390625 -5.359375 -1.890625 C -5.785156 -1.398438 -6.378906 -1.148438 -7.140625 -1.140625 C -7.734375 -1.140625 -8.253906 -1.285156 -8.703125 -1.578125 C -9.160156 -1.867188 -9.519531 -2.300781 -9.78125 -2.875 C -10.039062 -3.457031 -10.171875 -4.179688 -10.171875 -5.046875 C -10.171875 -6.171875 -9.921875 -7.070312 -9.421875 -7.75 C -8.921875 -8.4375 -8.191406 -8.796875 -7.234375 -8.828125 L -7.234375 -7.046875 C -7.691406 -6.972656 -8.050781 -6.757812 -8.3125 -6.40625 C -8.570312 -6.0625 -8.703125 -5.601562 -8.703125 -5.03125 C -8.703125 -4.4375 -8.582031 -3.945312 -8.34375 -3.5625 C -8.113281 -3.1875 -7.757812 -3 -7.28125 -3 C -6.945312 -3 -6.6875 -3.132812 -6.5 -3.40625 C -6.3125 -3.6875 -6.15625 -4.101562 -6.03125 -4.65625 L -5.5625 -6.5625 C -5.4375 -7.050781 -5.265625 -7.453125 -5.046875 -7.765625 C -4.835938 -8.078125 -4.609375 -8.320312 -4.359375 -8.5 C -4.109375 -8.6875 -3.847656 -8.816406 -3.578125 -8.890625 C -3.304688 -8.960938 -3.050781 -9 -2.8125 -9 C -2.1875 -9 -1.648438 -8.835938 -1.203125 -8.515625 C -0.753906 -8.203125 -0.410156 -7.75 -0.171875 -7.15625 C 0.0664062 -6.570312 0.1875 -5.875 0.1875 -5.0625 Z M 0.1875 -5.0625 "/></g></g></g><g fill="#000000" fill-opacity="1"><g transform="translate(19.334779, 29.253465)"><g><path d="M -9.984375 -3.578125 L 0 -3.578125 L 0 -1.59375 L -9.984375 -1.59375 Z M -13.953125 -3.625 L -11.921875 -3.625 L -11.921875 -1.546875 L -13.953125 -1.546875 Z M -13.953125 -3.625 "/></g></g></g><g fill="#000000" fill-opacity="1"><g transform="translate(19.334779, 24.098334)"><g><path d="M 3.296875 -5.71875 C 3.296875 -4.101562 3.066406 -2.847656 2.609375 -1.953125 C 2.160156 -1.066406 1.53125 -0.625 0.71875 -0.625 C 0.363281 -0.625 0.0664062 -0.707031 -0.171875 -0.875 C -0.421875 -1.050781 -0.625 -1.253906 -0.78125 -1.484375 C -0.945312 -1.722656 -1.078125 -1.941406 -1.171875 -2.140625 C -1.265625 -2.335938 -1.332031 -2.46875 -1.375 -2.53125 C -1.4375 -2.414062 -1.515625 -2.273438 -1.609375 -2.109375 C -1.710938 -1.941406 -1.847656 -1.789062 -2.015625 -1.65625 C -2.191406 -1.519531 -2.414062 -1.453125 -2.6875 -1.453125 C -3.007812 -1.453125 -3.304688 -1.601562 -3.578125 -1.90625 C -3.859375 -2.207031 -4.0625 -2.664062 -4.1875 -3.28125 C -4.488281 -2.675781 -4.890625 -2.207031 -5.390625 -1.875 C -5.890625 -1.539062 -6.421875 -1.375 -6.984375 -1.375 C -7.640625 -1.375 -8.203125 -1.554688 -8.671875 -1.921875 C -9.148438 -2.296875 -9.515625 -2.816406 -9.765625 -3.484375 C -10.015625 -4.148438 -10.140625 -4.929688 -10.140625 -5.828125 C -10.140625 -6.484375 -10.0625 -7.035156 -9.90625 -7.484375 C -9.757812 -7.929688 -9.554688 -8.335938 -9.296875 -8.703125 C -9.335938 -8.828125 -9.40625 -9 -9.5 -9.21875 C -9.59375 -9.445312 -9.691406 -9.695312 -9.796875 -9.96875 C -9.910156 -10.25 -10.019531 -10.515625 -10.125 -10.765625 C -10.226562 -11.015625 -10.3125 -11.210938 -10.375 -11.359375 L -8.578125 -11.359375 L -8.265625 -9.625 C -8.066406 -9.707031 -7.851562 -9.773438 -7.625 -9.828125 C -7.394531 -9.890625 -7.179688 -9.921875 -6.984375 -9.921875 C -6.410156 -9.921875 -5.878906 -9.757812 -5.390625 -9.4375 C -4.898438 -9.125 -4.507812 -8.648438 -4.21875 -8.015625 C -3.9375 -7.390625 -3.796875 -6.601562 -3.796875 -5.65625 C -3.796875 -5.5625 -3.796875 -5.441406 -3.796875 -5.296875 C -3.796875 -5.160156 -3.804688 -5.046875 -3.828125 -4.953125 C -3.804688 -4.359375 -3.734375 -3.945312 -3.609375 -3.71875 C -3.492188 -3.488281 -3.363281 -3.375 -3.21875 -3.375 C -3.039062 -3.375 -2.921875 -3.519531 -2.859375 -3.8125 C -2.796875 -4.101562 -2.738281 -4.582031 -2.6875 -5.25 C -2.675781 -5.476562 -2.660156 -5.78125 -2.640625 -6.15625 C -2.617188 -6.53125 -2.59375 -6.941406 -2.5625 -7.390625 C -2.5 -8.484375 -2.222656 -9.316406 -1.734375 -9.890625 C -1.253906 -10.460938 -0.613281 -10.75 0.1875 -10.75 C 1.09375 -10.75 1.835938 -10.332031 2.421875 -9.5 C 3.003906 -8.675781 3.296875 -7.414062 3.296875 -5.71875 Z M 2.03125 -6.078125 C 2.03125 -6.960938 1.90625 -7.628906 1.65625 -8.078125 C 1.40625 -8.523438 1.023438 -8.75 0.515625 -8.75 C 0.148438 -8.75 -0.148438 -8.601562 -0.390625 -8.3125 C -0.628906 -8.019531 -0.769531 -7.585938 -0.8125 -7.015625 L -0.984375 -4.359375 C -0.992188 -4.085938 -0.9375 -3.820312 -0.8125 -3.5625 C -0.6875 -3.300781 -0.507812 -3.085938 -0.28125 -2.921875 C -0.0507812 -2.753906 0.203125 -2.671875 0.484375 -2.671875 C 0.984375 -2.671875 1.363281 -2.945312 1.625 -3.5 C 1.894531 -4.050781 2.03125 -4.910156 2.03125 -6.078125 Z M -5.0625 -5.71875 C -5.0625 -6.382812 -5.222656 -6.921875 -5.546875 -7.328125 C -5.867188 -7.742188 -6.335938 -7.953125 -6.953125 -7.953125 C -7.585938 -7.953125 -8.078125 -7.742188 -8.421875 -7.328125 C -8.765625 -6.921875 -8.9375 -6.382812 -8.9375 -5.71875 C -8.9375 -5.039062 -8.757812 -4.492188 -8.40625 -4.078125 C -8.0625 -3.660156 -7.578125 -3.453125 -6.953125 -3.453125 C -6.359375 -3.453125 -5.894531 -3.648438 -5.5625 -4.046875 C -5.226562 -4.441406 -5.0625 -5 -5.0625 -5.71875 Z M -5.0625 -5.71875 "/></g></g></g><g fill="#000000" fill-opacity="1"><g transform="translate(19.334779, 12.0697)"><g><path d="M 0 -1.40625 L -9.984375 -1.40625 L -9.984375 -3.421875 L -8.546875 -3.421875 C -8.816406 -3.578125 -9.070312 -3.789062 -9.3125 -4.0625 C -9.550781 -4.34375 -9.742188 -4.679688 -9.890625 -5.078125 C -10.035156 -5.484375 -10.109375 -5.953125 -10.109375 -6.484375 C -10.109375 -7.109375 -9.984375 -7.6875 -9.734375 -8.21875 C -9.484375 -8.75 -9.097656 -9.171875 -8.578125 -9.484375 C -8.054688 -9.804688 -7.378906 -9.96875 -6.546875 -9.96875 L 0 -9.96875 L 0 -7.90625 L -6.328125 -7.90625 C -7.035156 -7.90625 -7.5625 -7.710938 -7.90625 -7.328125 C -8.257812 -6.953125 -8.4375 -6.460938 -8.4375 -5.859375 C -8.4375 -5.453125 -8.367188 -5.0625 -8.234375 -4.6875 C -8.097656 -4.320312 -7.894531 -4.023438 -7.625 -3.796875 C -7.351562 -3.578125 -7.007812 -3.46875 -6.59375 -3.46875 L 0 -3.46875 Z M 0 -1.40625 "/></g></g></g></g></g><g clip-path="url(#be0950f853)"><g clip-path="url(#ee125d154a)"><g transform="matrix(1, 0, 0, 1, 328, 223)"><g clip-path="url(#b5241c0a94)"><g clip-path="url(#a4243cb879)"><g clip-path="url(#b2dca8df03)"><path fill="#7065f6" d="M 0.125 0.949219 L 16.960938 0.949219 L 16.960938 17.785156 L 0.125 17.785156 Z M 0.125 0.949219 " fill-opacity="1" fill-rule="nonzero"/></g></g></g></g></g></g></svg>